<svg xmlns="http://www.w3.org/2000/svg" xmlns:xlink="http://www.w3.org/1999/xlink" width="500" zoomAndPan="magnify" viewBox="0 0 375 374.999991" height="500" preserveAspectRatio="xMidYMid meet" version="1.0"><defs><g/><clipPath id="id1"><path d="M 281.164062 163.328125 L 296.164062 163.328125 L 296.164062 178.328125 L 281.164062 178.328125 Z M 281.164062 163.328125 " clip-rule="nonzero"/></clipPath></defs><rect x="-37.5" width="450" fill="#ffffff" y="-37.499999" height="449.999989" fill-opacity="1"/><rect x="-37.5" width="450" fill="#ffffff" y="-37.499999" height="449.999989" fill-opacity="1"/><rect x="-37.5" width="450" fill="#ffffff" y="-37.499999" height="449.999989" fill-opacity="1"/><rect x="-37.5" width="450" fill="#ffffff" y="-37.499999" height="449.999989" fill-opacity="1"/><g clip-path="url(#id1)"><path fill="#00b1eb" d="M 295.882812 170.808594 C 296.019531 171.019531 296.078125 171.25 296.054688 171.5 C 296.035156 171.75 295.9375 171.96875 295.765625 172.148438 C 295.488281 172.4375 295.402344 172.777344 295.503906 173.164062 C 295.566406 173.40625 295.546875 173.644531 295.445312 173.875 C 295.34375 174.105469 295.183594 174.277344 294.960938 174.394531 C 294.605469 174.578125 294.414062 174.867188 294.386719 175.269531 C 294.367188 175.519531 294.273438 175.738281 294.101562 175.921875 C 293.929688 176.105469 293.722656 176.214844 293.472656 176.253906 C 293.078125 176.3125 292.804688 176.523438 292.648438 176.894531 C 292.546875 177.125 292.386719 177.296875 292.167969 177.417969 C 291.949219 177.535156 291.714844 177.574219 291.46875 177.527344 C 291.074219 177.453125 290.746094 177.566406 290.480469 177.863281 C 290.3125 178.050781 290.101562 178.164062 289.855469 178.203125 C 289.609375 178.242188 289.375 178.203125 289.15625 178.078125 C 288.808594 177.882812 288.460938 177.878906 288.113281 178.074219 C 287.894531 178.195312 287.660156 178.234375 287.414062 178.191406 C 287.167969 178.148438 286.960938 178.035156 286.792969 177.847656 C 286.527344 177.546875 286.199219 177.433594 285.808594 177.5 C 285.558594 177.546875 285.328125 177.507812 285.105469 177.386719 C 284.886719 177.265625 284.726562 177.089844 284.632812 176.855469 C 284.476562 176.488281 284.203125 176.273438 283.808594 176.210938 C 283.5625 176.167969 283.355469 176.058594 283.1875 175.871094 C 283.015625 175.6875 282.925781 175.46875 282.90625 175.214844 C 282.882812 174.816406 282.691406 174.523438 282.339844 174.335938 C 282.121094 174.21875 281.957031 174.042969 281.859375 173.8125 C 281.757812 173.582031 281.742188 173.347656 281.808594 173.101562 C 281.914062 172.714844 281.828125 172.378906 281.554688 172.085938 C 281.386719 171.902344 281.289062 171.683594 281.269531 171.433594 C 281.25 171.183594 281.3125 170.953125 281.453125 170.746094 C 281.675781 170.414062 281.707031 170.066406 281.542969 169.699219 C 281.441406 169.472656 281.421875 169.234375 281.484375 168.992188 C 281.546875 168.75 281.675781 168.550781 281.875 168.398438 C 282.195312 168.160156 282.335938 167.839844 282.300781 167.441406 C 282.277344 167.191406 282.335938 166.960938 282.472656 166.75 C 282.609375 166.542969 282.796875 166.398438 283.035156 166.320312 C 283.417969 166.199219 283.65625 165.941406 283.75 165.550781 C 283.808594 165.308594 283.9375 165.109375 284.136719 164.953125 C 284.335938 164.800781 284.558594 164.726562 284.808594 164.730469 C 285.207031 164.738281 285.515625 164.574219 285.730469 164.234375 C 285.867188 164.023438 286.050781 163.878906 286.289062 163.796875 C 286.527344 163.71875 286.761719 163.71875 286.996094 163.804688 C 287.371094 163.941406 287.714844 163.886719 288.027344 163.636719 C 288.226562 163.480469 288.449219 163.402344 288.699219 163.40625 C 288.949219 163.40625 289.171875 163.484375 289.367188 163.644531 C 289.679688 163.894531 290.019531 163.953125 290.398438 163.820312 C 290.632812 163.738281 290.871094 163.738281 291.105469 163.820312 C 291.34375 163.902344 291.527344 164.050781 291.660156 164.261719 C 291.875 164.601562 292.179688 164.769531 292.578125 164.765625 C 292.828125 164.765625 293.050781 164.839844 293.25 164.996094 C 293.445312 165.152344 293.574219 165.351562 293.628906 165.597656 C 293.722656 165.984375 293.957031 166.246094 294.335938 166.371094 C 294.574219 166.449219 294.757812 166.597656 294.894531 166.808594 C 295.03125 167.019531 295.085938 167.25 295.0625 167.5 C 295.023438 167.898438 295.160156 168.21875 295.476562 168.460938 C 295.675781 168.613281 295.804688 168.8125 295.867188 169.054688 C 295.925781 169.300781 295.902344 169.535156 295.800781 169.765625 C 295.632812 170.128906 295.660156 170.476562 295.882812 170.808594 Z M 295.882812 170.808594 " fill-opacity="1" fill-rule="nonzero"/></g><path fill="#ffffff" d="M 287.929688 170.953125 L 286.082031 169.097656 L 284.5625 170.621094 L 286.414062 172.476562 L 287.929688 174.003906 L 289.449219 172.476562 L 292.777344 169.136719 L 291.257812 167.613281 Z M 287.929688 170.953125 " fill-opacity="1" fill-rule="nonzero"/><g fill="#757bf6" fill-opacity="1"><g transform="translate(87.155068, 189.837278)"><g><path d="M 1.703125 -14.3125 L 5.015625 -14.3125 L 5.015625 -2.703125 L 12.1875 -2.703125 L 12.1875 0 L 1.703125 0 Z M 1.703125 -14.3125 "/></g></g></g><g fill="#757bf6" fill-opacity="1"><g transform="translate(99.506366, 189.837278)"><g><path d="M 11.125 -3.0625 L 4.484375 -3.0625 L 3.21875 0 L -0.1875 0 L 6.203125 -14.3125 L 9.46875 -14.3125 L 15.875 0 L 12.390625 0 Z M 10.078125 -5.578125 L 7.8125 -11.0625 L 5.546875 -5.578125 Z M 10.078125 -5.578125 "/></g></g></g><g fill="#757bf6" fill-opacity="1"><g transform="translate(115.170419, 189.837278)"><g><path d="M 15.46875 -14.3125 L 9.265625 0 L 6 0 L -0.1875 -14.3125 L 3.390625 -14.3125 L 7.75 -4.09375 L 12.171875 -14.3125 Z M 15.46875 -14.3125 "/></g></g></g><g fill="#757bf6" fill-opacity="1"><g transform="translate(130.425496, 189.837278)"><g><path d="M 12.78125 -2.65625 L 12.78125 0 L 1.703125 0 L 1.703125 -14.3125 L 12.515625 -14.3125 L 12.515625 -11.65625 L 4.984375 -11.65625 L 4.984375 -8.546875 L 11.640625 -8.546875 L 11.640625 -5.96875 L 4.984375 -5.96875 L 4.984375 -2.65625 Z M 12.78125 -2.65625 "/></g></g></g><g fill="#757bf6" fill-opacity="1"><g transform="translate(144.146881, 189.837278)"><g><path d="M 8.5625 -5.078125 L 8.5625 0 L 5.25 0 L 5.25 -5.109375 L -0.28125 -14.3125 L 3.234375 -14.3125 L 7.0625 -7.953125 L 10.875 -14.3125 L 14.140625 -14.3125 Z M 8.5625 -5.078125 "/></g></g></g><g fill="#757bf6" fill-opacity="1"><g transform="translate(157.970519, 189.837278)"><g><path d="M 12.78125 -2.65625 L 12.78125 0 L 1.703125 0 L 1.703125 -14.3125 L 12.515625 -14.3125 L 12.515625 -11.65625 L 4.984375 -11.65625 L 4.984375 -8.546875 L 11.640625 -8.546875 L 11.640625 -5.96875 L 4.984375 -5.96875 L 4.984375 -2.65625 Z M 12.78125 -2.65625 "/></g></g></g><g fill="#757bf6" fill-opacity="1"><g transform="translate(171.691904, 189.837278)"><g><path d="M 8.0625 0.25 C 6.007812 0.25 4.414062 -0.316406 3.28125 -1.453125 C 2.144531 -2.585938 1.578125 -4.203125 1.578125 -6.296875 L 1.578125 -14.3125 L 4.890625 -14.3125 L 4.890625 -6.421875 C 4.890625 -3.859375 5.953125 -2.578125 8.078125 -2.578125 C 9.117188 -2.578125 9.910156 -2.882812 10.453125 -3.5 C 10.992188 -4.125 11.265625 -5.097656 11.265625 -6.421875 L 11.265625 -14.3125 L 14.546875 -14.3125 L 14.546875 -6.296875 C 14.546875 -4.203125 13.972656 -2.585938 12.828125 -1.453125 C 11.691406 -0.316406 10.101562 0.25 8.0625 0.25 Z M 8.0625 0.25 "/></g></g></g><g fill="#757bf6" fill-opacity="1"><g transform="translate(187.805848, 189.837278)"><g/></g></g><g fill="#757bf6" fill-opacity="1"><g transform="translate(193.592964, 189.837278)"><g><path d="M 10.96875 -5.5 L 13.625 -5.5 L 13.625 -3.265625 L 10.703125 -3.265625 L 10.28125 0 L 7.984375 0 L 8.390625 -3.265625 L 5.375 -3.265625 L 4.96875 0 L 2.671875 0 L 3.09375 -3.265625 L 0.40625 -3.265625 L 0.40625 -5.5 L 3.359375 -5.5 L 3.78125 -8.8125 L 1.109375 -8.8125 L 1.109375 -11.046875 L 4.046875 -11.046875 L 4.453125 -14.3125 L 6.75 -14.3125 L 6.34375 -11.046875 L 9.34375 -11.046875 L 9.75 -14.3125 L 12.046875 -14.3125 L 11.640625 -11.046875 L 14.296875 -11.046875 L 14.3125 -8.8125 L 11.375 -8.8125 Z M 8.65625 -5.5 L 9.078125 -8.8125 L 6.078125 -8.8125 L 5.640625 -5.5 Z M 8.65625 -5.5 "/></g></g></g><g fill="#757bf6" fill-opacity="1"><g transform="translate(208.31636, 189.837278)"><g/></g></g><g fill="#757bf6" fill-opacity="1"><g transform="translate(214.103476, 189.837278)"><g><path d="M 12.203125 -7.4375 C 13.023438 -7.1875 13.664062 -6.753906 14.125 -6.140625 C 14.59375 -5.535156 14.828125 -4.789062 14.828125 -3.90625 C 14.828125 -2.65625 14.335938 -1.691406 13.359375 -1.015625 C 12.390625 -0.335938 10.972656 0 9.109375 0 L 1.703125 0 L 1.703125 -14.3125 L 8.6875 -14.3125 C 10.4375 -14.3125 11.773438 -13.976562 12.703125 -13.3125 C 13.640625 -12.644531 14.109375 -11.738281 14.109375 -10.59375 C 14.109375 -9.894531 13.941406 -9.273438 13.609375 -8.734375 C 13.273438 -8.191406 12.804688 -7.757812 12.203125 -7.4375 Z M 4.984375 -11.828125 L 4.984375 -8.453125 L 8.28125 -8.453125 C 9.101562 -8.453125 9.722656 -8.59375 10.140625 -8.875 C 10.566406 -9.164062 10.78125 -9.585938 10.78125 -10.140625 C 10.78125 -10.703125 10.566406 -11.125 10.140625 -11.40625 C 9.722656 -11.6875 9.101562 -11.828125 8.28125 -11.828125 Z M 8.859375 -2.5 C 9.734375 -2.5 10.390625 -2.640625 10.828125 -2.921875 C 11.273438 -3.210938 11.5 -3.65625 11.5 -4.25 C 11.5 -5.4375 10.617188 -6.03125 8.859375 -6.03125 L 4.984375 -6.03125 L 4.984375 -2.5 Z M 8.859375 -2.5 "/></g></g></g><g fill="#757bf6" fill-opacity="1"><g transform="translate(229.747079, 189.837278)"><g><path d="M 1.703125 -14.3125 L 5.015625 -14.3125 L 5.015625 -2.703125 L 12.1875 -2.703125 L 12.1875 0 L 1.703125 0 Z M 1.703125 -14.3125 "/></g></g></g><g fill="#757bf6" fill-opacity="1"><g transform="translate(242.098378, 189.837278)"><g><path d="M 8.625 0.25 C 7.144531 0.25 5.804688 -0.0664062 4.609375 -0.703125 C 3.421875 -1.347656 2.488281 -2.234375 1.8125 -3.359375 C 1.132812 -4.484375 0.796875 -5.75 0.796875 -7.15625 C 0.796875 -8.5625 1.132812 -9.828125 1.8125 -10.953125 C 2.488281 -12.078125 3.421875 -12.957031 4.609375 -13.59375 C 5.804688 -14.238281 7.144531 -14.5625 8.625 -14.5625 C 10.113281 -14.5625 11.453125 -14.238281 12.640625 -13.59375 C 13.828125 -12.957031 14.757812 -12.078125 15.4375 -10.953125 C 16.125 -9.828125 16.46875 -8.5625 16.46875 -7.15625 C 16.46875 -5.75 16.125 -4.484375 15.4375 -3.359375 C 14.757812 -2.234375 13.828125 -1.347656 12.640625 -0.703125 C 11.453125 -0.0664062 10.113281 0.25 8.625 0.25 Z M 8.625 -2.578125 C 9.476562 -2.578125 10.242188 -2.769531 10.921875 -3.15625 C 11.597656 -3.550781 12.128906 -4.09375 12.515625 -4.78125 C 12.910156 -5.476562 13.109375 -6.269531 13.109375 -7.15625 C 13.109375 -8.039062 12.910156 -8.832031 12.515625 -9.53125 C 12.128906 -10.226562 11.597656 -10.769531 10.921875 -11.15625 C 10.242188 -11.539062 9.476562 -11.734375 8.625 -11.734375 C 7.78125 -11.734375 7.015625 -11.539062 6.328125 -11.15625 C 5.648438 -10.769531 5.117188 -10.226562 4.734375 -9.53125 C 4.347656 -8.832031 4.15625 -8.039062 4.15625 -7.15625 C 4.15625 -6.269531 4.347656 -5.476562 4.734375 -4.78125 C 5.117188 -4.09375 5.648438 -3.550781 6.328125 -3.15625 C 7.015625 -2.769531 7.78125 -2.578125 8.625 -2.578125 Z M 8.625 -2.578125 "/></g></g></g><g fill="#757bf6" fill-opacity="1"><g transform="translate(259.357475, 189.837278)"><g><path d="M 11.375 -7.390625 L 14.40625 -7.390625 L 14.40625 -1.578125 C 13.625 -0.992188 12.722656 -0.539062 11.703125 -0.21875 C 10.679688 0.09375 9.648438 0.25 8.609375 0.25 C 7.117188 0.25 5.78125 -0.0664062 4.59375 -0.703125 C 3.414062 -1.335938 2.488281 -2.21875 1.8125 -3.34375 C 1.132812 -4.46875 0.796875 -5.738281 0.796875 -7.15625 C 0.796875 -8.570312 1.132812 -9.84375 1.8125 -10.96875 C 2.488281 -12.09375 3.425781 -12.972656 4.625 -13.609375 C 5.820312 -14.242188 7.171875 -14.5625 8.671875 -14.5625 C 9.921875 -14.5625 11.054688 -14.347656 12.078125 -13.921875 C 13.109375 -13.503906 13.972656 -12.894531 14.671875 -12.09375 L 12.53125 -10.125 C 11.507812 -11.195312 10.273438 -11.734375 8.828125 -11.734375 C 7.921875 -11.734375 7.113281 -11.539062 6.40625 -11.15625 C 5.695312 -10.78125 5.144531 -10.242188 4.75 -9.546875 C 4.351562 -8.859375 4.15625 -8.0625 4.15625 -7.15625 C 4.15625 -6.269531 4.351562 -5.476562 4.75 -4.78125 C 5.144531 -4.09375 5.691406 -3.550781 6.390625 -3.15625 C 7.085938 -2.769531 7.890625 -2.578125 8.796875 -2.578125 C 9.753906 -2.578125 10.613281 -2.78125 11.375 -3.1875 Z M 11.375 -7.390625 "/></g></g></g><g fill="#1f1d26" fill-opacity="1"><g transform="translate(87.155068, 206.144034)"><g><path d="M 1.078125 -8.03125 L 4.59375 -8.03125 C 5.445312 -8.03125 6.207031 -7.863281 6.875 -7.53125 C 7.539062 -7.195312 8.054688 -6.722656 8.421875 -6.109375 C 8.785156 -5.503906 8.96875 -4.804688 8.96875 -4.015625 C 8.96875 -3.222656 8.785156 -2.519531 8.421875 -1.90625 C 8.054688 -1.300781 7.539062 -0.832031 6.875 -0.5 C 6.207031 -0.164062 5.445312 0 4.59375 0 L 1.078125 0 Z M 4.515625 -1.265625 C 5.109375 -1.265625 5.628906 -1.375 6.078125 -1.59375 C 6.523438 -1.820312 6.867188 -2.144531 7.109375 -2.5625 C 7.347656 -2.976562 7.46875 -3.460938 7.46875 -4.015625 C 7.46875 -4.566406 7.347656 -5.050781 7.109375 -5.46875 C 6.867188 -5.882812 6.523438 -6.203125 6.078125 -6.421875 C 5.628906 -6.648438 5.109375 -6.765625 4.515625 -6.765625 L 2.5625 -6.765625 L 2.5625 -1.265625 Z M 4.515625 -1.265625 "/></g></g></g><g fill="#1f1d26" fill-opacity="1"><g transform="translate(96.621768, 206.144034)"><g><path d="M 1.078125 -8.03125 L 2.5625 -8.03125 L 2.5625 0 L 1.078125 0 Z M 1.078125 -8.03125 "/></g></g></g><g fill="#1f1d26" fill-opacity="1"><g transform="translate(100.277801, 206.144034)"><g><path d="M 6.5625 -4.109375 L 7.96875 -4.109375 L 7.96875 -0.90625 C 7.550781 -0.570312 7.066406 -0.316406 6.515625 -0.140625 C 5.972656 0.0234375 5.410156 0.109375 4.828125 0.109375 C 4.003906 0.109375 3.265625 -0.0664062 2.609375 -0.421875 C 1.953125 -0.773438 1.4375 -1.265625 1.0625 -1.890625 C 0.6875 -2.515625 0.5 -3.222656 0.5 -4.015625 C 0.5 -4.796875 0.6875 -5.5 1.0625 -6.125 C 1.4375 -6.757812 1.953125 -7.253906 2.609375 -7.609375 C 3.273438 -7.960938 4.019531 -8.140625 4.84375 -8.140625 C 5.519531 -8.140625 6.132812 -8.03125 6.6875 -7.8125 C 7.238281 -7.59375 7.703125 -7.265625 8.078125 -6.828125 L 7.140625 -5.921875 C 6.523438 -6.523438 5.785156 -6.828125 4.921875 -6.828125 C 4.359375 -6.828125 3.851562 -6.707031 3.40625 -6.46875 C 2.96875 -6.238281 2.625 -5.910156 2.375 -5.484375 C 2.125 -5.054688 2 -4.566406 2 -4.015625 C 2 -3.484375 2.125 -3 2.375 -2.5625 C 2.625 -2.132812 2.96875 -1.796875 3.40625 -1.546875 C 3.851562 -1.304688 4.351562 -1.1875 4.90625 -1.1875 C 5.53125 -1.1875 6.082031 -1.328125 6.5625 -1.609375 Z M 6.5625 -4.109375 "/></g></g></g><g fill="#1f1d26" fill-opacity="1"><g transform="translate(109.125617, 206.144034)"><g><path d="M 1.078125 -8.03125 L 2.5625 -8.03125 L 2.5625 0 L 1.078125 0 Z M 1.078125 -8.03125 "/></g></g></g><g fill="#1f1d26" fill-opacity="1"><g transform="translate(112.781649, 206.144034)"><g><path d="M 2.703125 -6.765625 L 0.046875 -6.765625 L 0.046875 -8.03125 L 6.859375 -8.03125 L 6.859375 -6.765625 L 4.203125 -6.765625 L 4.203125 0 L 2.703125 0 Z M 2.703125 -6.765625 "/></g></g></g><g fill="#1f1d26" fill-opacity="1"><g transform="translate(119.681108, 206.144034)"><g><path d="M 6.28125 -1.859375 L 2.265625 -1.859375 L 1.484375 0 L -0.0625 0 L 3.5625 -8.03125 L 5.015625 -8.03125 L 8.640625 0 L 7.09375 0 Z M 5.796875 -3.03125 L 4.28125 -6.53125 L 2.78125 -3.03125 Z M 5.796875 -3.03125 "/></g></g></g><g fill="#1f1d26" fill-opacity="1"><g transform="translate(128.265321, 206.144034)"><g><path d="M 1.078125 -8.03125 L 2.5625 -8.03125 L 2.5625 -1.265625 L 6.765625 -1.265625 L 6.765625 0 L 1.078125 0 Z M 1.078125 -8.03125 "/></g></g></g><g fill="#1f1d26" fill-opacity="1"><g transform="translate(135.130402, 206.144034)"><g><path d="M 3.4375 -9.65625 L 4.71875 -9.65625 L 0.9375 1.140625 L -0.34375 1.140625 Z M 3.4375 -9.65625 "/></g></g></g><g fill="#1f1d26" fill-opacity="1"><g transform="translate(139.382397, 206.144034)"><g><path d="M 8.21875 -8.03125 L 8.21875 0 L 6.984375 0 L 2.5625 -5.4375 L 2.5625 0 L 1.078125 0 L 1.078125 -8.03125 L 2.3125 -8.03125 L 6.734375 -2.59375 L 6.734375 -8.03125 Z M 8.21875 -8.03125 "/></g></g></g><g fill="#1f1d26" fill-opacity="1"><g transform="translate(148.66573, 206.144034)"><g><path d="M 7.09375 -1.25 L 7.09375 0 L 1.078125 0 L 1.078125 -8.03125 L 6.9375 -8.03125 L 6.9375 -6.78125 L 2.5625 -6.78125 L 2.5625 -4.6875 L 6.453125 -4.6875 L 6.453125 -3.46875 L 2.5625 -3.46875 L 2.5625 -1.25 Z M 7.09375 -1.25 "/></g></g></g><g fill="#1f1d26" fill-opacity="1"><g transform="translate(156.344531, 206.144034)"><g><path d="M 2.703125 -6.765625 L 0.046875 -6.765625 L 0.046875 -8.03125 L 6.859375 -8.03125 L 6.859375 -6.765625 L 4.203125 -6.765625 L 4.203125 0 L 2.703125 0 Z M 2.703125 -6.765625 "/></g></g></g><g fill="#1f1d26" fill-opacity="1"><g transform="translate(163.243991, 206.144034)"><g><path d="M 12.8125 -8.03125 L 10.15625 0 L 8.5625 0 L 6.578125 -5.9375 L 4.5625 0 L 2.96875 0 L 0.3125 -8.03125 L 1.859375 -8.03125 L 3.859375 -1.921875 L 5.921875 -8.03125 L 7.3125 -8.03125 L 9.328125 -1.890625 L 11.390625 -8.03125 Z M 12.8125 -8.03125 "/></g></g></g><g fill="#1f1d26" fill-opacity="1"><g transform="translate(176.355257, 206.144034)"><g><path d="M 4.828125 0.109375 C 4.003906 0.109375 3.265625 -0.0664062 2.609375 -0.421875 C 1.953125 -0.773438 1.4375 -1.265625 1.0625 -1.890625 C 0.6875 -2.523438 0.5 -3.234375 0.5 -4.015625 C 0.5 -4.796875 0.6875 -5.5 1.0625 -6.125 C 1.4375 -6.757812 1.953125 -7.253906 2.609375 -7.609375 C 3.265625 -7.960938 4.003906 -8.140625 4.828125 -8.140625 C 5.648438 -8.140625 6.390625 -7.960938 7.046875 -7.609375 C 7.703125 -7.253906 8.21875 -6.757812 8.59375 -6.125 C 8.96875 -5.5 9.15625 -4.796875 9.15625 -4.015625 C 9.15625 -3.222656 8.96875 -2.515625 8.59375 -1.890625 C 8.21875 -1.265625 7.703125 -0.773438 7.046875 -0.421875 C 6.390625 -0.0664062 5.648438 0.109375 4.828125 0.109375 Z M 4.828125 -1.1875 C 5.359375 -1.1875 5.835938 -1.304688 6.265625 -1.546875 C 6.703125 -1.796875 7.039062 -2.132812 7.28125 -2.5625 C 7.53125 -3 7.65625 -3.484375 7.65625 -4.015625 C 7.65625 -4.546875 7.53125 -5.023438 7.28125 -5.453125 C 7.039062 -5.890625 6.703125 -6.226562 6.265625 -6.46875 C 5.835938 -6.707031 5.359375 -6.828125 4.828125 -6.828125 C 4.296875 -6.828125 3.8125 -6.707031 3.375 -6.46875 C 2.945312 -6.226562 2.609375 -5.890625 2.359375 -5.453125 C 2.117188 -5.023438 2 -4.546875 2 -4.015625 C 2 -3.484375 2.117188 -3 2.359375 -2.5625 C 2.609375 -2.132812 2.945312 -1.796875 3.375 -1.546875 C 3.8125 -1.304688 4.296875 -1.1875 4.828125 -1.1875 Z M 4.828125 -1.1875 "/></g></g></g><g fill="#1f1d26" fill-opacity="1"><g transform="translate(186.005338, 206.144034)"><g><path d="M 6.328125 0 L 4.6875 -2.34375 C 4.625 -2.34375 4.519531 -2.34375 4.375 -2.34375 L 2.5625 -2.34375 L 2.5625 0 L 1.078125 0 L 1.078125 -8.03125 L 4.375 -8.03125 C 5.070312 -8.03125 5.675781 -7.914062 6.1875 -7.6875 C 6.707031 -7.457031 7.101562 -7.128906 7.375 -6.703125 C 7.65625 -6.273438 7.796875 -5.765625 7.796875 -5.171875 C 7.796875 -4.566406 7.648438 -4.046875 7.359375 -3.609375 C 7.066406 -3.171875 6.644531 -2.847656 6.09375 -2.640625 L 7.9375 0 Z M 6.296875 -5.171875 C 6.296875 -5.679688 6.125 -6.070312 5.78125 -6.34375 C 5.445312 -6.625 4.957031 -6.765625 4.3125 -6.765625 L 2.5625 -6.765625 L 2.5625 -3.5625 L 4.3125 -3.5625 C 4.957031 -3.5625 5.445312 -3.703125 5.78125 -3.984375 C 6.125 -4.265625 6.296875 -4.660156 6.296875 -5.171875 Z M 6.296875 -5.171875 "/></g></g></g><g fill="#1f1d26" fill-opacity="1"><g transform="translate(194.383259, 206.144034)"><g><path d="M 3.84375 -3.359375 L 2.5625 -2.046875 L 2.5625 0 L 1.078125 0 L 1.078125 -8.03125 L 2.5625 -8.03125 L 2.5625 -3.90625 L 6.53125 -8.03125 L 8.21875 -8.03125 L 4.84375 -4.4375 L 8.421875 0 L 6.671875 0 Z M 3.84375 -3.359375 "/></g></g></g><g fill="#1f1d26" fill-opacity="1"><g transform="translate(202.738258, 206.144034)"><g><path d="M 3.4375 -9.65625 L 4.71875 -9.65625 L 0.9375 1.140625 L -0.34375 1.140625 Z M 3.4375 -9.65625 "/></g></g></g><g fill="#1f1d26" fill-opacity="1"><g transform="translate(206.990253, 206.144034)"><g/></g></g><g fill="#1f1d26" fill-opacity="1"><g transform="translate(210.153457, 206.144034)"><g><path d="M 2.703125 -6.765625 L 0.046875 -6.765625 L 0.046875 -8.03125 L 6.859375 -8.03125 L 6.859375 -6.765625 L 4.203125 -6.765625 L 4.203125 0 L 2.703125 0 Z M 2.703125 -6.765625 "/></g></g></g><g fill="#1f1d26" fill-opacity="1"><g transform="translate(217.052916, 206.144034)"><g><path d="M 7.09375 -1.25 L 7.09375 0 L 1.078125 0 L 1.078125 -8.03125 L 6.9375 -8.03125 L 6.9375 -6.78125 L 2.5625 -6.78125 L 2.5625 -4.6875 L 6.453125 -4.6875 L 6.453125 -3.46875 L 2.5625 -3.46875 L 2.5625 -1.25 Z M 7.09375 -1.25 "/></g></g></g><g fill="#1f1d26" fill-opacity="1"><g transform="translate(224.731718, 206.144034)"><g><path d="M 4.796875 0.109375 C 3.984375 0.109375 3.25 -0.0664062 2.59375 -0.421875 C 1.9375 -0.773438 1.421875 -1.265625 1.046875 -1.890625 C 0.679688 -2.515625 0.5 -3.222656 0.5 -4.015625 C 0.5 -4.796875 0.6875 -5.5 1.0625 -6.125 C 1.4375 -6.757812 1.953125 -7.253906 2.609375 -7.609375 C 3.265625 -7.960938 4 -8.140625 4.8125 -8.140625 C 5.46875 -8.140625 6.066406 -8.023438 6.609375 -7.796875 C 7.148438 -7.566406 7.609375 -7.234375 7.984375 -6.796875 L 7.015625 -5.890625 C 6.429688 -6.515625 5.71875 -6.828125 4.875 -6.828125 C 4.320312 -6.828125 3.828125 -6.707031 3.390625 -6.46875 C 2.953125 -6.226562 2.609375 -5.894531 2.359375 -5.46875 C 2.117188 -5.039062 2 -4.554688 2 -4.015625 C 2 -3.472656 2.117188 -2.988281 2.359375 -2.5625 C 2.609375 -2.132812 2.953125 -1.796875 3.390625 -1.546875 C 3.828125 -1.304688 4.320312 -1.1875 4.875 -1.1875 C 5.71875 -1.1875 6.429688 -1.503906 7.015625 -2.140625 L 7.984375 -1.234375 C 7.609375 -0.796875 7.144531 -0.460938 6.59375 -0.234375 C 6.050781 -0.00390625 5.453125 0.109375 4.796875 0.109375 Z M 4.796875 0.109375 "/></g></g></g><g fill="#1f1d26" fill-opacity="1"><g transform="translate(233.063795, 206.144034)"><g><path d="M 8.21875 -8.03125 L 8.21875 0 L 6.71875 0 L 6.71875 -3.4375 L 2.5625 -3.4375 L 2.5625 0 L 1.078125 0 L 1.078125 -8.03125 L 2.5625 -8.03125 L 2.5625 -4.71875 L 6.71875 -4.71875 L 6.71875 -8.03125 Z M 8.21875 -8.03125 "/></g></g></g><g fill="#1f1d26" fill-opacity="1"><g transform="translate(242.347127, 206.144034)"><g><path d="M 8.21875 -8.03125 L 8.21875 0 L 6.984375 0 L 2.5625 -5.4375 L 2.5625 0 L 1.078125 0 L 1.078125 -8.03125 L 2.3125 -8.03125 L 6.734375 -2.59375 L 6.734375 -8.03125 Z M 8.21875 -8.03125 "/></g></g></g><g fill="#1f1d26" fill-opacity="1"><g transform="translate(251.630459, 206.144034)"><g><path d="M 4.828125 0.109375 C 4.003906 0.109375 3.265625 -0.0664062 2.609375 -0.421875 C 1.953125 -0.773438 1.4375 -1.265625 1.0625 -1.890625 C 0.6875 -2.523438 0.5 -3.234375 0.5 -4.015625 C 0.5 -4.796875 0.6875 -5.5 1.0625 -6.125 C 1.4375 -6.757812 1.953125 -7.253906 2.609375 -7.609375 C 3.265625 -7.960938 4.003906 -8.140625 4.828125 -8.140625 C 5.648438 -8.140625 6.390625 -7.960938 7.046875 -7.609375 C 7.703125 -7.253906 8.21875 -6.757812 8.59375 -6.125 C 8.96875 -5.5 9.15625 -4.796875 9.15625 -4.015625 C 9.15625 -3.222656 8.96875 -2.515625 8.59375 -1.890625 C 8.21875 -1.265625 7.703125 -0.773438 7.046875 -0.421875 C 6.390625 -0.0664062 5.648438 0.109375 4.828125 0.109375 Z M 4.828125 -1.1875 C 5.359375 -1.1875 5.835938 -1.304688 6.265625 -1.546875 C 6.703125 -1.796875 7.039062 -2.132812 7.28125 -2.5625 C 7.53125 -3 7.65625 -3.484375 7.65625 -4.015625 C 7.65625 -4.546875 7.53125 -5.023438 7.28125 -5.453125 C 7.039062 -5.890625 6.703125 -6.226562 6.265625 -6.46875 C 5.835938 -6.707031 5.359375 -6.828125 4.828125 -6.828125 C 4.296875 -6.828125 3.8125 -6.707031 3.375 -6.46875 C 2.945312 -6.226562 2.609375 -5.890625 2.359375 -5.453125 C 2.117188 -5.023438 2 -4.546875 2 -4.015625 C 2 -3.484375 2.117188 -3 2.359375 -2.5625 C 2.609375 -2.132812 2.945312 -1.796875 3.375 -1.546875 C 3.8125 -1.304688 4.296875 -1.1875 4.828125 -1.1875 Z M 4.828125 -1.1875 "/></g></g></g><g fill="#1f1d26" fill-opacity="1"><g transform="translate(261.28054, 206.144034)"><g><path d="M 1.078125 -8.03125 L 2.5625 -8.03125 L 2.5625 -1.265625 L 6.765625 -1.265625 L 6.765625 0 L 1.078125 0 Z M 1.078125 -8.03125 "/></g></g></g><g fill="#1f1d26" fill-opacity="1"><g transform="translate(268.145622, 206.144034)"><g><path d="M 4.828125 0.109375 C 4.003906 0.109375 3.265625 -0.0664062 2.609375 -0.421875 C 1.953125 -0.773438 1.4375 -1.265625 1.0625 -1.890625 C 0.6875 -2.523438 0.5 -3.234375 0.5 -4.015625 C 0.5 -4.796875 0.6875 -5.5 1.0625 -6.125 C 1.4375 -6.757812 1.953125 -7.253906 2.609375 -7.609375 C 3.265625 -7.960938 4.003906 -8.140625 4.828125 -8.140625 C 5.648438 -8.140625 6.390625 -7.960938 7.046875 -7.609375 C 7.703125 -7.253906 8.21875 -6.757812 8.59375 -6.125 C 8.96875 -5.5 9.15625 -4.796875 9.15625 -4.015625 C 9.15625 -3.222656 8.96875 -2.515625 8.59375 -1.890625 C 8.21875 -1.265625 7.703125 -0.773438 7.046875 -0.421875 C 6.390625 -0.0664062 5.648438 0.109375 4.828125 0.109375 Z M 4.828125 -1.1875 C 5.359375 -1.1875 5.835938 -1.304688 6.265625 -1.546875 C 6.703125 -1.796875 7.039062 -2.132812 7.28125 -2.5625 C 7.53125 -3 7.65625 -3.484375 7.65625 -4.015625 C 7.65625 -4.546875 7.53125 -5.023438 7.28125 -5.453125 C 7.039062 -5.890625 6.703125 -6.226562 6.265625 -6.46875 C 5.835938 -6.707031 5.359375 -6.828125 4.828125 -6.828125 C 4.296875 -6.828125 3.8125 -6.707031 3.375 -6.46875 C 2.945312 -6.226562 2.609375 -5.890625 2.359375 -5.453125 C 2.117188 -5.023438 2 -4.546875 2 -4.015625 C 2 -3.484375 2.117188 -3 2.359375 -2.5625 C 2.609375 -2.132812 2.945312 -1.796875 3.375 -1.546875 C 3.8125 -1.304688 4.296875 -1.1875 4.828125 -1.1875 Z M 4.828125 -1.1875 "/></g></g></g><g fill="#1f1d26" fill-opacity="1"><g transform="translate(277.795703, 206.144034)"><g><path d="M 6.5625 -4.109375 L 7.96875 -4.109375 L 7.96875 -0.90625 C 7.550781 -0.570312 7.066406 -0.316406 6.515625 -0.140625 C 5.972656 0.0234375 5.410156 0.109375 4.828125 0.109375 C 4.003906 0.109375 3.265625 -0.0664062 2.609375 -0.421875 C 1.953125 -0.773438 1.4375 -1.265625 1.0625 -1.890625 C 0.6875 -2.515625 0.5 -3.222656 0.5 -4.015625 C 0.5 -4.796875 0.6875 -5.5 1.0625 -6.125 C 1.4375 -6.757812 1.953125 -7.253906 2.609375 -7.609375 C 3.273438 -7.960938 4.019531 -8.140625 4.84375 -8.140625 C 5.519531 -8.140625 6.132812 -8.03125 6.6875 -7.8125 C 7.238281 -7.59375 7.703125 -7.265625 8.078125 -6.828125 L 7.140625 -5.921875 C 6.523438 -6.523438 5.785156 -6.828125 4.921875 -6.828125 C 4.359375 -6.828125 3.851562 -6.707031 3.40625 -6.46875 C 2.96875 -6.238281 2.625 -5.910156 2.375 -5.484375 C 2.125 -5.054688 2 -4.566406 2 -4.015625 C 2 -3.484375 2.125 -3 2.375 -2.5625 C 2.625 -2.132812 2.96875 -1.796875 3.40625 -1.546875 C 3.851562 -1.304688 4.351562 -1.1875 4.90625 -1.1875 C 5.53125 -1.1875 6.082031 -1.328125 6.5625 -1.609375 Z M 6.5625 -4.109375 "/></g></g></g><g fill="#1f1d26" fill-opacity="1"><g transform="translate(286.643519, 206.144034)"><g><path d="M 4.546875 -2.828125 L 4.546875 0 L 3.046875 0 L 3.046875 -2.8125 L -0.109375 -8.03125 L 1.484375 -8.03125 L 3.84375 -4.125 L 6.21875 -8.03125 L 7.6875 -8.03125 Z M 4.546875 -2.828125 "/></g></g></g></svg>